<!DOCTYPE svg PUBLIC "-//W3C//DTD SVG 1.1//EN" "http://www.w3.org/Graphics/SVG/1.1/DTD/svg11.dtd">

<!-- Uploaded to: SVG Repo, www.svgrepo.com, Transformed by: SVG Repo Mixer Tools -->
<svg width="800px" height="800px" viewBox="0 0 400 400" fill="none"
    xmlns="http://www.w3.org/2000/svg">

    <g id="SVGRepo_bgCarrier" stroke-width="0" />

    <g id="SVGRepo_tracerCarrier" stroke-linecap="round" stroke-linejoin="round" />

    <g id="SVGRepo_iconCarrier">
        <path
            d="M121.358 169.114C113.323 170.156 110.41 175.162 110.41 183.106C110.41 188.402 115.718 192.778 126.332 196.234C138.318 278.962 262.334 278.962 269.793 189.569C279.58 183.335 284.474 178.832 284.474 176.06C284.474 170.966 282.693 167.375 273.47 164.264"
            stroke="#000000" stroke-opacity="0.9" stroke-width="16" stroke-linecap="round"
            stroke-linejoin="round" />
        <path
            d="M143.784 140.423C154.596 121.945 158.573 103.468 158.573 103.468C158.573 103.468 185.014 130.619 258.829 140.423"
            stroke="#000000" stroke-opacity="0.9" stroke-width="16" stroke-linecap="round"
            stroke-linejoin="round" />
        <path d="M211.113 214.424C204.075 216.134 197.171 220.501 191.765 214.424" stroke="#000000"
            stroke-opacity="0.9" stroke-width="16" stroke-linecap="round" stroke-linejoin="round" />
        <path d="M183.24 173.782C183.448 169.653 184.255 165.756 184.651 161.848" stroke="#000000"
            stroke-opacity="0.9" stroke-width="16" stroke-linecap="round" stroke-linejoin="round" />
        <path d="M215.512 172.788C215.94 168.501 215.321 164.155 214.985 159.858" stroke="#000000"
            stroke-opacity="0.9" stroke-width="16" stroke-linecap="round" stroke-linejoin="round" />
        <path d="M93.2508 290.741C71.3887 204.243 103.236 87.4556 137.701 87.4556" stroke="#000000"
            stroke-opacity="0.9" stroke-width="16" stroke-linecap="round" stroke-linejoin="round" />
        <path d="M161 72.2918C321.58 3.07047 319.339 246.828 304.913 290.741" stroke="#000000"
            stroke-opacity="0.9" stroke-width="16" stroke-linecap="round" stroke-linejoin="round" />
        <path
            d="M321 334C305.879 311.635 267.523 293.288 225.619 286.218C216.959 284.756 209.29 323.192 200.5 322.758C192.615 322.368 184.034 282.979 177.023 283.351C121.791 286.284 92.9843 310.749 80 323.694"
            stroke="#000000" stroke-opacity="0.9" stroke-width="16" stroke-linecap="round"
            stroke-linejoin="round" />
    </g>

</svg>